<svg width="167" height="141" version="1.1" xmlns="http://www.w3.org/2000/svg"><path fill="rgb(0,0,0)" stroke="rgb(0,0,0)" stroke-width="1" opacity="0.09019607843137255" d="M 142.5 1 L 159.5 1 L 162 3.5 L 159.5 2 L 123.5 4 L 122.5 5 L 109.5 5 L 108.5 6 L 95.5 6 L 94.5 7 L 81.5 7 L 80.5 8 L 67.5 8 L 66.5 9 L 52.5 9 L 51.5 10 L 38.5 10 L 37.5 11 L 24.5 11 L 23.5 12 L 10.5 12 Q 9.2 14.2 4.5 13 L 3 14.5 L 2 16.5 L 49 140 Q 53.6 141.3 55 138.5 L 57.5 132 L 58 133.5 L 54.5 141 Q 48.5 142.5 47 139.5 L 2 21.5 L 1 13.5 L 4.5 11 L 13.5 11 L 14.5 10 L 28.5 10 L 29.5 9 L 70.5 7 L 71.5 6 L 84.5 6 L 85.5 5 L 98.5 5 L 99.5 4 L 112.5 4 L 113.5 3 L 127.5 3 L 128.5 2 L 141.5 2 L 142.5 1 Z "></path><path fill="rgb(0,0,0)" stroke="rgb(0,0,0)" stroke-width="1" opacity="0.09019607843137255" d="M 161.5 5 L 161 6.5 Q 161.8 8.8 159.5 8 L 149.5 10 L 140.5 10 L 139.5 11 L 130.5 11 L 120.5 13 L 110.5 13 L 100.5 15 L 91.5 15 L 90.5 16 L 81.5 16 L 80.5 17 L 71.5 17 L 61.5 19 L 52.5 19 L 51.5 20 L 42.5 20 L 41.5 21 L 15 23 L 15.5 21 L 17.5 21 L 46.5 19 L 47.5 18 L 95.5 14 L 96.5 13 L 105.5 13 L 106.5 12 L 134.5 10 L 135.5 9 L 144.5 9 Q 146.3 6.3 152.5 8 L 161.5 5 Z "></path><path fill="rgb(0,0,0)" stroke="rgb(0,0,0)" stroke-width="1" opacity="0.09019607843137255" d="M 161.5 14 L 166 16.5 L 164.5 16 L 159 18.5 L 116.5 122 L 115 119.5 L 117 117.5 L 159 15 L 161.5 14 Z "></path><path fill="rgb(0,0,0)" stroke="rgb(0,0,0)" stroke-width="1" opacity="0.09019607843137255" d="M 164.5 22 L 165 23.5 L 155.5 47 L 155 45.5 L 164.5 22 Z "></path><path fill="rgb(0,0,0)" stroke="rgb(0,0,0)" stroke-width="1" opacity="0.09019607843137255" d="M 81.5 39 Q 86 38 87 40.5 L 85.5 40 L 81 41 L 71 70.5 L 54 114.5 L 51.5 118 L 50 115.5 L 52 115 L 71 66.5 L 78 44.5 L 81.5 39 Z "></path><path fill="rgb(0,0,0)" stroke="rgb(0,0,0)" stroke-width="1" opacity="0.09019607843137255" d="M 154.5 48 L 155 49.5 L 150.5 60 L 150 58.5 L 154.5 48 Z "></path><path fill="rgb(0,0,0)" stroke="rgb(0,0,0)" stroke-width="1" opacity="0.09019607843137255" d="M 84.5 61 L 112 136.5 L 114.5 140 L 119.5 139 L 120 141 Q 112.9 142.8 111 138.5 L 85 66 Q 82.3 64.9 83 67.5 L 81.5 70 L 81 68.5 L 84.5 61 Z "></path><path fill="rgb(0,0,0)" stroke="rgb(0,0,0)" stroke-width="1" opacity="0.09019607843137255" d="M 149.5 61 L 150 62.5 L 147.5 68 L 147 66.5 L 149.5 61 Z "></path><path fill="rgb(0,0,0)" stroke="rgb(0,0,0)" stroke-width="1" opacity="0.09019607843137255" d="M 146.5 69 L 147 70.5 L 143.5 78 L 143 76.5 L 146.5 69 Z "></path><path fill="rgb(0,0,0)" stroke="rgb(0,0,0)" stroke-width="1" opacity="0.09019607843137255" d="M 79.5 74 L 80 75.5 L 78.5 78 L 78 76.5 L 79.5 74 Z "></path><path fill="rgb(0,0,0)" stroke="rgb(0,0,0)" stroke-width="1" opacity="0.09019607843137255" d="M 142.5 79 L 143 80.5 L 140.5 86 L 140 84.5 L 142.5 79 Z "></path><path fill="rgb(0,0,0)" stroke="rgb(0,0,0)" stroke-width="1" opacity="0.09019607843137255" d="M 76.5 82 L 77 83.5 L 75.5 86 L 75 84.5 L 76.5 82 Z "></path><path fill="rgb(0,0,0)" stroke="rgb(0,0,0)" stroke-width="1" opacity="0.09019607843137255" d="M 74.5 87 L 75 88.5 L 72.5 94 L 72 92.5 L 74.5 87 Z "></path><path fill="rgb(0,0,0)" stroke="rgb(0,0,0)" stroke-width="1" opacity="0.09019607843137255" d="M 139.5 87 L 140 88.5 L 137.5 94 L 137 92.5 L 139.5 87 Z "></path><path fill="rgb(0,0,0)" stroke="rgb(0,0,0)" stroke-width="1" opacity="0.09019607843137255" d="M 71.5 95 L 72 96.5 L 69.5 102 L 69 100.5 L 71.5 95 Z "></path><path fill="rgb(0,0,0)" stroke="rgb(0,0,0)" stroke-width="1" opacity="0.09019607843137255" d="M 136.5 95 L 137 96.5 L 135.5 99 L 135 97.5 L 136.5 95 Z "></path><path fill="rgb(0,0,0)" stroke="rgb(0,0,0)" stroke-width="1" opacity="0.09019607843137255" d="M 134.5 100 L 135 101.5 L 128.5 117 L 128 115.5 L 134.5 100 Z "></path><path fill="rgb(0,0,0)" stroke="rgb(0,0,0)" stroke-width="1" opacity="0.09019607843137255" d="M 68.5 103 L 69 104.5 L 66.5 110 L 66 108.5 L 68.5 103 Z "></path><path fill="rgb(0,0,0)" stroke="rgb(0,0,0)" stroke-width="1" opacity="0.09019607843137255" d="M 65.5 111 L 66 112.5 L 63.5 118 L 63 116.5 L 65.5 111 Z "></path><path fill="rgb(0,0,0)" stroke="rgb(0,0,0)" stroke-width="1" opacity="0.09019607843137255" d="M 127.5 118 L 128 119.5 L 123.5 130 L 123 128.5 L 127.5 118 Z "></path><path fill="rgb(0,0,0)" stroke="rgb(0,0,0)" stroke-width="1" opacity="0.09019607843137255" d="M 62.5 119 L 63 120.5 L 58.5 131 L 58 129.5 L 62.5 119 Z "></path><path fill="rgb(0,0,0)" stroke="rgb(0,0,0)" stroke-width="1" opacity="0.09019607843137255" d="M 122.5 131 L 123 132.5 L 120.5 138 L 120 136.5 L 122.5 131 Z "></path><path fill="rgb(0,0,0)" stroke="rgb(0,0,0)" stroke-width="1" opacity="0" d="M 0 0 L 167 0 L 167 141 L 120.5 141 L 120 138.5 L 161 34.5 L 166 20.5 L 166 16.5 L 161.5 14 L 159 15 L 115.5 119 L 89 44.5 L 85.5 39 Q 81 38 80 40.5 L 52 115 Q 49 116.3 50 112.5 L 16 23 L 70.5 18 L 71.5 17 L 80.5 17 L 81.5 16 L 90.5 16 L 91.5 15 L 100.5 15 L 110.5 13 L 120.5 13 L 130.5 11 L 139.5 11 L 140.5 10 L 149.5 10 L 161 8 L 162 3.5 L 159.5 1 L 142.5 1 L 141.5 2 L 113.5 3 L 112.5 4 L 99.5 4 L 98.5 5 L 85.5 5 L 84.5 6 L 71.5 6 L 70.5 7 L 57.5 7 L 56.5 8 L 43.5 8 L 42.5 9 L 29.5 9 L 28.5 10 L 14.5 10 L 13.5 11 L 4.5 11 L 1 13.5 L 2 21.5 L 48 140.5 L 0 141 L 0 0 Z "></path><path fill="rgb(0,0,0)" stroke="rgb(0,0,0)" stroke-width="1" opacity="0" d="M 83 66 Q 86 64.8 85 68.5 L 109 130.5 L 111 138.5 L 113 140.5 L 55.5 141 L 56 139.5 L 83 66 Z "></path><path fill="rgb(4,4,4)" stroke="rgb(4,4,4)" stroke-width="1" opacity="0.32941176470588235" d="M 152.5 2 L 160 2.5 L 152.5 3 L 152.5 2 Z "></path><path fill="rgb(4,4,4)" stroke="rgb(4,4,4)" stroke-width="1" opacity="0.32941176470588235" d="M 137.5 3 L 145 3.5 L 137.5 4 L 137.5 3 Z "></path><path fill="rgb(4,4,4)" stroke="rgb(4,4,4)" stroke-width="1" opacity="0.32941176470588235" d="M 123.5 4 L 132 4.5 L 123.5 5 L 123.5 4 Z "></path><path fill="rgb(4,4,4)" stroke="rgb(4,4,4)" stroke-width="1" opacity="0.32941176470588235" d="M 161.5 4 L 160.5 6 L 161.5 4 Z "></path><path fill="rgb(4,4,4)" stroke="rgb(4,4,4)" stroke-width="1" opacity="0.32941176470588235" d="M 109.5 5 L 118 5.5 L 109.5 6 L 109.5 5 Z "></path><path fill="rgb(4,4,4)" stroke="rgb(4,4,4)" stroke-width="1" opacity="0.32941176470588235" d="M 95.5 6 L 103 6.5 L 95.5 7 L 95.5 6 Z "></path><path fill="rgb(4,4,4)" stroke="rgb(4,4,4)" stroke-width="1" opacity="0.32941176470588235" d="M 151.5 6 L 157 6.5 L 144.5 9 L 135.5 9 L 134.5 10 L 106.5 12 L 105.5 13 L 56.5 17 L 55.5 18 L 37.5 19 L 36.5 20 L 26.5 20 L 16.5 22 L 14 21.5 L 14.5 20 L 21.5 20 L 22.5 19 L 62.5 16 L 63.5 15 L 111.5 11 L 112.5 10 L 121.5 10 L 122.5 9 L 150.5 7 L 151.5 6 Z "></path><path fill="rgb(4,4,4)" stroke="rgb(4,4,4)" stroke-width="1" opacity="0.32941176470588235" d="M 81.5 7 L 89 7.5 L 81.5 8 L 81.5 7 Z "></path><path fill="rgb(4,4,4)" stroke="rgb(4,4,4)" stroke-width="1" opacity="0.32941176470588235" d="M 67.5 8 L 75 8.5 L 67.5 9 L 67.5 8 Z "></path><path fill="rgb(4,4,4)" stroke="rgb(4,4,4)" stroke-width="1" opacity="0.32941176470588235" d="M 52.5 9 L 61 9.5 L 52.5 10 L 52.5 9 Z "></path><path fill="rgb(4,4,4)" stroke="rgb(4,4,4)" stroke-width="1" opacity="0.32941176470588235" d="M 38.5 10 L 46 10.5 L 38.5 11 L 38.5 10 Z "></path><path fill="rgb(4,4,4)" stroke="rgb(4,4,4)" stroke-width="1" opacity="0.32941176470588235" d="M 24.5 11 L 32 11.5 L 24.5 12 L 24.5 11 Z "></path><path fill="rgb(4,4,4)" stroke="rgb(4,4,4)" stroke-width="1" opacity="0.32941176470588235" d="M 10.5 12 L 20 12.5 L 10.5 13 L 10.5 12 Z "></path><path fill="rgb(4,4,4)" stroke="rgb(4,4,4)" stroke-width="1" opacity="0.32941176470588235" d="M 4.5 13 L 7 13.5 L 5 14 L 7 24.5 L 51 139 L 54.5 138 L 53.5 140 Q 48.1 141.9 49 138.5 L 2 16.5 L 4.5 13 Z "></path><path fill="rgb(4,4,4)" stroke="rgb(4,4,4)" stroke-width="1" opacity="0.32941176470588235" d="M 162.5 16 L 162 17.5 L 117.5 124 Q 114.8 122.8 117 121.5 L 160.5 17 L 162.5 16 Z "></path><path fill="rgb(4,4,4)" stroke="rgb(4,4,4)" stroke-width="1" opacity="0.32941176470588235" d="M 84.5 40 L 83 42.5 L 62 99.5 L 52.5 121 L 51 118.5 L 54 114.5 L 81 41 L 84.5 40 Z "></path><path fill="rgb(4,4,4)" stroke="rgb(4,4,4)" stroke-width="1" opacity="0.32941176470588235" d="M 85.5 59 L 112 130.5 L 117 139.5 L 114.5 140 L 112 136.5 L 84 60.5 L 85.5 59 Z "></path><path fill="rgb(4,4,4)" stroke="rgb(4,4,4)" stroke-width="1" opacity="0.32941176470588235" d="M 119.5 138 L 118.5 140 L 119.5 138 Z "></path><path fill="rgb(127,127,127)" stroke="rgb(127,127,127)" stroke-width="1" opacity="0.9647058823529412" d="M 151.5 3 L 160.5 3 L 161 5 L 127.5 8 L 126.5 9 L 117.5 9 L 116.5 10 L 107.5 10 L 106.5 11 L 97.5 11 L 96.5 12 L 87.5 12 L 86.5 13 L 77.5 13 L 76.5 14 L 67.5 14 L 57.5 16 L 48.5 16 L 47.5 17 L 38.5 17 L 37.5 18 L 13 19 L 52 122 Q 55 123.3 54 119.5 L 79.5 55 L 80 56.5 L 74 72.5 L 75.5 75 L 81 63.5 L 83 55.5 L 81 55.5 L 82 53.5 L 81.5 52 L 83.5 55 L 85 52.5 L 84.5 50 Q 81.9 50.8 83 47.5 L 85.5 42 L 95 63.5 L 113 115.5 L 118 126.5 L 117 128.5 L 119 127.5 L 120.5 124 L 121.5 126 L 130 104.5 L 128 103.5 L 119.5 122 L 120 120.5 L 162 18.5 L 164.5 16 L 165 19.5 L 128 116.5 L 119 134.5 L 119 139 Q 114.9 140.7 116 136.5 L 115.5 134 Q 112.9 134.8 114 131.5 L 89 66.5 L 85.5 54 L 72 93.5 L 56 135.5 L 53.5 139 L 51 137.5 L 15 42.5 L 7 14 L 17.5 14 L 25.5 12 L 37.5 12 L 38.5 11 L 51.5 11 L 52.5 10 L 66.5 10 L 67.5 9 L 80.5 9 L 81.5 8 L 94.5 8 L 95.5 7 L 108.5 7 L 109.5 6 L 122.5 6 L 123.5 5 L 136.5 5 L 137.5 4 L 150.5 4 L 151.5 3 Z M 47 12 L 46 13 L 33 13 L 32 14 L 22 14 L 21 16 Q 22 18 28 17 L 30 17 L 48 15 L 47 14 L 49 14 Q 53 15 52 13 L 51 13 L 47 12 Z M 15 32 L 14 35 L 15 35 L 15 32 Z M 21 43 Q 21 46 18 45 L 51 135 L 52 135 L 51 123 L 24 54 Q 25 51 23 52 L 23 51 L 21 43 Z M 74 74 L 72 77 L 74 77 Q 77 76 74 74 Z "></path><path fill="rgb(23,23,23)" stroke="rgb(23,23,23)" stroke-width="1" opacity="0.7725490196078432" d="M 145.5 3 L 151 3.5 L 145.5 4 L 145.5 3 Z "></path><path fill="rgb(23,23,23)" stroke="rgb(23,23,23)" stroke-width="1" opacity="0.7725490196078432" d="M 132.5 4 L 137 4.5 L 132.5 5 L 132.5 4 Z "></path><path fill="rgb(23,23,23)" stroke="rgb(23,23,23)" stroke-width="1" opacity="0.7725490196078432" d="M 118.5 5 L 123 5.5 L 118.5 6 L 118.5 5 Z "></path><path fill="rgb(23,23,23)" stroke="rgb(23,23,23)" stroke-width="1" opacity="0.7725490196078432" d="M 156.5 5 L 160 5.5 L 156.5 6 L 156.5 5 Z "></path><path fill="rgb(23,23,23)" stroke="rgb(23,23,23)" stroke-width="1" opacity="0.7725490196078432" d="M 103.5 6 L 109 6.5 L 103.5 7 L 103.5 6 Z "></path><path fill="rgb(23,23,23)" stroke="rgb(23,23,23)" stroke-width="1" opacity="0.7725490196078432" d="M 146.5 6 L 151 6.5 L 146.5 7 L 146.5 6 Z "></path><path fill="rgb(23,23,23)" stroke="rgb(23,23,23)" stroke-width="1" opacity="0.7725490196078432" d="M 89.5 7 L 95 7.5 L 89.5 8 L 89.5 7 Z "></path><path fill="rgb(23,23,23)" stroke="rgb(23,23,23)" stroke-width="1" opacity="0.7725490196078432" d="M 136.5 7 L 141 7.5 L 136.5 8 L 136.5 7 Z "></path><path fill="rgb(23,23,23)" stroke="rgb(23,23,23)" stroke-width="1" opacity="0.7725490196078432" d="M 75.5 8 L 81 8.5 L 75.5 9 L 75.5 8 Z "></path><path fill="rgb(23,23,23)" stroke="rgb(23,23,23)" stroke-width="1" opacity="0.7725490196078432" d="M 127.5 8 L 131 8.5 L 127.5 9 L 127.5 8 Z "></path><path fill="rgb(23,23,23)" stroke="rgb(23,23,23)" stroke-width="1" opacity="0.7725490196078432" d="M 61.5 9 L 67 9.5 L 61.5 10 L 61.5 9 Z "></path><path fill="rgb(23,23,23)" stroke="rgb(23,23,23)" stroke-width="1" opacity="0.7725490196078432" d="M 117.5 9 L 122 9.5 L 117.5 10 L 117.5 9 Z "></path><path fill="rgb(23,23,23)" stroke="rgb(23,23,23)" stroke-width="1" opacity="0.7725490196078432" d="M 46.5 10 L 52 10.5 L 46.5 11 L 46.5 10 Z "></path><path fill="rgb(23,23,23)" stroke="rgb(23,23,23)" stroke-width="1" opacity="0.7725490196078432" d="M 107.5 10 L 112 10.5 L 107.5 11 L 107.5 10 Z "></path><path fill="rgb(23,23,23)" stroke="rgb(23,23,23)" stroke-width="1" opacity="0.7725490196078432" d="M 32.5 11 L 38 11.5 L 32.5 12 L 32.5 11 Z "></path><path fill="rgb(23,23,23)" stroke="rgb(23,23,23)" stroke-width="1" opacity="0.7725490196078432" d="M 97.5 11 L 102 11.5 L 97.5 12 L 97.5 11 Z "></path><path fill="rgb(23,23,23)" stroke="rgb(23,23,23)" stroke-width="1" opacity="0.7725490196078432" d="M 20.5 12 L 25 12.5 L 20.5 13 L 20.5 12 Z "></path><path fill="rgb(23,23,23)" stroke="rgb(23,23,23)" stroke-width="1" opacity="0.7725490196078432" d="M 46.5 12 L 50.5 13 L 52 12.5 Q 52.9 15.5 48.5 14 L 47.5 15 L 29.5 17 L 27.5 17 Q 22.3 18.3 21 15.5 L 21.5 14 L 31.5 14 L 32.5 13 L 45.5 13 L 46.5 12 Z "></path><path fill="rgb(23,23,23)" stroke="rgb(23,23,23)" stroke-width="1" opacity="0.7725490196078432" d="M 87.5 12 L 92 12.5 L 87.5 13 L 87.5 12 Z "></path><path fill="rgb(23,23,23)" stroke="rgb(23,23,23)" stroke-width="1" opacity="0.7725490196078432" d="M 7.5 13 Q 16.4 11.1 20 14.5 L 18.5 15 L 17.5 14 L 7 14 Q 7 21.3 11 25.5 L 11.5 31 L 13.5 30 L 13.5 31 Q 10.9 30.2 12 33.5 L 13.5 37 Q 16.3 35.8 14 34.5 L 14.5 32 L 16 35.5 L 14 39.5 L 16.5 45 L 17.5 43 L 18 45 Q 20.7 46.1 20 43.5 L 21 43.5 L 23 50.5 L 22.5 52 Q 24.8 51.3 24 53.5 L 51 122.5 L 52 134.5 L 51 134.5 L 50.5 133 L 49.5 135 L 45 123.5 L 46 123.5 L 46.5 125 L 47 122.5 L 44.5 117 L 43.5 119 L 42 115.5 L 43 115.5 L 43.5 117 L 44 114.5 L 39.5 104 L 38.5 106 L 36 99.5 L 37 99.5 L 37.5 101 L 38 98.5 L 36.5 96 L 35.5 98 L 33 91.5 L 34 91.5 L 34.5 93 L 35 90.5 L 33.5 88 L 32.5 90 L 30 83.5 L 31 83.5 L 31.5 85 L 32 82.5 L 30.5 80 L 29.5 82 L 28 78.5 L 29 78.5 L 29.5 80 L 30 77.5 L 27.5 72 L 27 74.5 L 28 76.5 L 27 76.5 L 7 24.5 L 5 14 L 7.5 13 Z M 18 45 L 17 48 L 18 48 L 18 45 Z M 19 48 L 20 56 L 21 56 L 19 48 Z M 22 56 L 23 64 L 24 64 L 22 56 Z M 25 64 L 24 67 L 25 67 L 25 64 Z M 27 69 L 26 72 L 27 72 L 27 69 Z M 33 85 L 32 88 L 33 88 L 33 85 Z M 36 93 L 35 96 L 36 96 L 36 93 Z M 39 101 L 38 104 L 39 104 L 39 101 Z M 49 127 L 48 130 L 49 130 L 49 127 Z M 50 130 L 49 133 L 50 133 L 50 130 Z "></path><path fill="rgb(23,23,23)" stroke="rgb(23,23,23)" stroke-width="1" opacity="0.7725490196078432" d="M 77.5 13 L 82 13.5 L 77.5 14 L 77.5 13 Z "></path><path fill="rgb(23,23,23)" stroke="rgb(23,23,23)" stroke-width="1" opacity="0.7725490196078432" d="M 67.5 14 L 72 14.5 L 67.5 15 L 67.5 14 Z "></path><path fill="rgb(23,23,23)" stroke="rgb(23,23,23)" stroke-width="1" opacity="0.7725490196078432" d="M 58.5 15 L 63 15.5 L 58.5 16 L 58.5 15 Z "></path><path fill="rgb(23,23,23)" stroke="rgb(23,23,23)" stroke-width="1" opacity="0.7725490196078432" d="M 48.5 16 L 53 16.5 L 48.5 17 L 48.5 16 Z "></path><path fill="rgb(23,23,23)" stroke="rgb(23,23,23)" stroke-width="1" opacity="0.7725490196078432" d="M 163.5 16 L 162.5 18 L 163.5 16 Z "></path><path fill="rgb(23,23,23)" stroke="rgb(23,23,23)" stroke-width="1" opacity="0.7725490196078432" d="M 38.5 17 L 43 17.5 L 38.5 18 L 38.5 17 Z "></path><path fill="rgb(23,23,23)" stroke="rgb(23,23,23)" stroke-width="1" opacity="0.7725490196078432" d="M 26.5 18 L 33 18.5 L 26.5 19 L 26.5 18 Z "></path><path fill="rgb(23,23,23)" stroke="rgb(23,23,23)" stroke-width="1" opacity="0.7725490196078432" d="M 13 19 L 22 19.5 L 14 20 L 16 25.5 L 15 25.5 L 13 19 Z "></path><path fill="rgb(23,23,23)" stroke="rgb(23,23,23)" stroke-width="1" opacity="0.7725490196078432" d="M 159.5 24 L 160 25.5 L 158.5 28 L 158 26.5 L 159.5 24 Z "></path><path fill="rgb(23,23,23)" stroke="rgb(23,23,23)" stroke-width="1" opacity="0.7725490196078432" d="M 154.5 36 L 155 37.5 L 153.5 40 L 153 38.5 L 154.5 36 Z "></path><path fill="rgb(23,23,23)" stroke="rgb(23,23,23)" stroke-width="1" opacity="0.7725490196078432" d="M 85.5 40 L 91 53.5 L 90 53.5 L 85.5 42 L 83 50 L 85 50.5 L 84 53.5 L 77 73.5 L 73.5 77 L 72 76.5 L 73.5 74 L 75 74.5 L 74 71.5 L 75 68.5 L 74 66.5 L 75 66.5 L 75.5 68 L 77 63.5 L 76 63.5 L 75.5 65 L 75 63.5 L 76.5 61 L 77.5 63 L 79 57.5 L 78 55.5 L 81 46.5 L 85.5 40 Z "></path><path fill="rgb(23,23,23)" stroke="rgb(23,23,23)" stroke-width="1" opacity="0.7725490196078432" d="M 151.5 43 L 152 44.5 L 150.5 47 L 150 45.5 L 151.5 43 Z "></path><path fill="rgb(23,23,23)" stroke="rgb(23,23,23)" stroke-width="1" opacity="0.7725490196078432" d="M 85.5 54 L 89 65.5 L 88 65.5 L 85.5 59 L 84 59.5 L 85.5 54 Z "></path><path fill="rgb(23,23,23)" stroke="rgb(23,23,23)" stroke-width="1" opacity="0.7725490196078432" d="M 89.5 67 L 99 92.5 L 98 92.5 L 89.5 67 Z "></path><path fill="rgb(23,23,23)" stroke="rgb(23,23,23)" stroke-width="1" opacity="0.7725490196078432" d="M 138.5 74 L 139 75.5 L 137.5 78 L 137 76.5 L 138.5 74 Z "></path><path fill="rgb(23,23,23)" stroke="rgb(23,23,23)" stroke-width="1" opacity="0.7725490196078432" d="M 69.5 79 L 70 80.5 L 68.5 83 L 68 81.5 L 69.5 79 Z "></path><path fill="rgb(23,23,23)" stroke="rgb(23,23,23)" stroke-width="1" opacity="0.7725490196078432" d="M 133.5 86 L 134 87.5 L 132.5 90 L 132 88.5 L 133.5 86 Z "></path><path fill="rgb(23,23,23)" stroke="rgb(23,23,23)" stroke-width="1" opacity="0.7725490196078432" d="M 99.5 94 L 102 100.5 L 101 100.5 L 99.5 94 Z "></path><path fill="rgb(23,23,23)" stroke="rgb(23,23,23)" stroke-width="1" opacity="0.7725490196078432" d="M 102.5 102 L 105 108.5 L 104 108.5 L 102.5 102 Z "></path><path fill="rgb(23,23,23)" stroke="rgb(23,23,23)" stroke-width="1" opacity="0.7725490196078432" d="M 128.5 103 Q 131.3 104.3 129 105.5 L 125 118.5 L 119.5 130 L 118.5 128 L 117 128.5 L 118 126.5 L 116 123.5 L 118 123.5 Q 117.3 121.3 119.5 122 L 119.5 120 L 121 120.5 L 120 117.5 L 121 117.5 L 121.5 119 L 123 114.5 L 122 112.5 L 123 112.5 L 123.5 114 L 128.5 103 Z "></path><path fill="rgb(23,23,23)" stroke="rgb(23,23,23)" stroke-width="1" opacity="0.7725490196078432" d="M 39.5 107 L 41 110.5 L 40 110.5 L 39.5 107 Z "></path><path fill="rgb(23,23,23)" stroke="rgb(23,23,23)" stroke-width="1" opacity="0.7725490196078432" d="M 105.5 110 L 108 116.5 L 107 116.5 L 105.5 110 Z "></path><path fill="rgb(23,23,23)" stroke="rgb(23,23,23)" stroke-width="1" opacity="0.7725490196078432" d="M 108.5 118 L 111 124.5 L 110 124.5 L 108.5 118 Z "></path><path fill="rgb(23,23,23)" stroke="rgb(23,23,23)" stroke-width="1" opacity="0.7725490196078432" d="M 53.5 120 L 54 122 L 52 121.5 L 53.5 120 Z "></path><path fill="rgb(23,23,23)" stroke="rgb(23,23,23)" stroke-width="1" opacity="0.7725490196078432" d="M 123.5 125 L 124 126.5 L 119.5 138 L 119 134.5 L 123.5 125 Z "></path><path fill="rgb(23,23,23)" stroke="rgb(23,23,23)" stroke-width="1" opacity="0.7725490196078432" d="M 112.5 129 L 114 132.5 L 113 132.5 L 112.5 129 Z "></path><path fill="rgb(23,23,23)" stroke="rgb(23,23,23)" stroke-width="1" opacity="0.7725490196078432" d="M 114 134 L 116 134.5 L 116 136.5 L 115.5 138 L 114 134 Z "></path></svg>